# File created by Blade
# Date/Time:  Wed Jan 21 19:19:27 2015
#---------------------------------------------------------
:version 1.10
:name HOM
:units
  mass 1.0
  length 1.000000
  angle deg
:documentation
     Acclaim Skeleton File
:root
   axis xyz
   order TX TY TZ RX RY RZ
   position 0.000000 0.000000 0.000000
   orientation 0 0 0
:bonedata
   begin
      id 1
      name RightUpLeg_dum
      direction -1.000000 0.000000 0.000000
      length 3.693983
      axis 0.0 0.0 0.0 xyz
   end
   begin
      id 2
      name LeftUpLeg_dum
      direction 1.000000 0.000000 0.000000
      length 3.693983
      axis 0.0 0.0 0.0 xyz
   end
   begin
      id 3
      name Spine_dum
      direction 0.000000 1.000000 0.000000
      length 2.392956
      axis 0.0 0.0 0.0 xyz
   end
   begin
      id 4
      name RightUpLeg
      direction 0.000000 -1.000000 0.000000
      length 15.795667
      axis 0.0 0.0 0.0 xyz
      dof rx ry rz
   end
   begin
      id 5
      name RightLeg
      direction 0.000000 -1.000000 0.000000
      length 14.766989
      axis 0.0 0.0 0.0 xyz
      dof rx ry rz
   end
   begin
      id 6
      name RightFoot
      direction 0.000000 -0.258819 0.965926
      length 4.962790
      axis 15.0 0.0 0.0 xyz
      dof rx ry rz
   end
   begin
      id 7
      name RightToeBase
      direction 0.000000 0.000000 1.000000
      length 2.952750
      axis 0.0 0.0 0.0 xyz
      dof rx ry rz
   end
   begin
      id 8
      name LeftUpLeg
      direction 0.000000 -1.000000 0.000000
      length 15.795667
      axis 0.0 0.0 0.0 xyz
      dof rx ry rz
   end
   begin
      id 9
      name LeftLeg
      direction 0.000000 -1.000000 0.000000
      length 14.766989
      axis 0.0 0.0 0.0 xyz
      dof rx ry rz
   end
   begin
      id 10
      name LeftFoot
      direction 0.000000 -0.258819 0.965926
      length 4.962790
      axis 15.0 0.0 0.0 xyz
      dof rx ry rz
   end
   begin
      id 11
      name LeftToeBase
      direction 0.000000 0.000000 1.000000
      length 2.952750
      axis 0.0 0.0 0.0 xyz
      dof rx ry rz
   end
   begin
      id 12
      name Spine
      direction 0.000000 1.000000 0.000000
      length 0.000000
      axis 0.0 0.0 0.0 xyz
      dof rx ry rz
   end
   begin
      id 13
      name Spine_dum1
      direction 0.000000 1.000000 0.000000
      length 13.207411
      axis 0.0 0.0 0.0 xyz
   end
   begin
      id 14
      name Spine_dum2
      direction 0.000000 1.000000 0.000000
      length 13.207411
      axis 0.0 0.0 0.0 xyz
   end
   begin
      id 15
      name Spine_dum3
      direction 0.000000 1.000000 0.000000
      length 19.250100
      axis 0.0 0.0 0.0 xyz
   end
   begin
      id 16
      name RightShoulder
      direction -1.000000 0.000000 0.000000
      length 8.140465
      axis 0.0 0.0 90.0 xyz
      dof rx ry rz
   end
   begin
      id 17
      name RightArm
      direction -1.000000 0.000000 0.000000
      length 10.649840
      axis 0.0 0.0 90.0 xyz
      dof rx ry rz
   end
   begin
      id 18
      name RightForeArm
      direction -1.000000 0.000000 0.000000
      length 8.304624
      axis 0.0 0.0 90.0 xyz
      dof ry rz rx
   end
   begin
      id 19
      name RightHand
      direction -1.000000 0.000000 0.000000
      length 0.000000
      axis 0.0 0.0 90.0 xyz
      dof rx ry rz
   end
   begin
      id 20
      name RightHand_dum1
      direction -1.000000 0.000000 0.000000
      length 3.937000
      axis 0.0 0.0 90.0 xyz
   end
   begin
      id 21
      name RightHand_dum2
      direction 0.000000 0.000000 0.000000
      length 0.000000
      axis 0.0 0.0 90.0 xyz
   end
   begin
      id 22
      name RightHandThumb1
      direction 0.000000 0.000000 1.000000
      length 3.937000
      axis 0.0 0.0 90.0 xyz
      dof rx rz ry
   end
   begin
      id 23
      name LeftShoulder
      direction 1.000000 0.000000 0.000000
      length 8.140465
      axis 0.0 0.0 -90.0 xyz
      dof rx ry rz
   end
   begin
      id 24
      name LeftArm
      direction 1.000000 0.000000 0.000000
      length 10.649840
      axis 0.0 0.0 -90.0 xyz
      dof rx ry rz
   end
   begin
      id 25
      name LeftForeArm
      direction 1.000000 0.000000 0.000000
      length 8.304624
      axis 0.0 0.0 -90.0 xyz
      dof ry rz rx
   end
   begin
      id 26
      name LeftHand
      direction 1.000000 0.000000 0.000000
      length 0.000000
      axis 0.0 0.0 -90.0 xyz
      dof rx ry rz
   end
   begin
      id 27
      name LeftHand_dum1
      direction 1.000000 0.000000 0.000000
      length 3.937000
      axis 0.0 0.0 -90.0 xyz
   end
   begin
      id 28
      name LeftHand_dum2
      direction 0.000000 0.000000 0.000000
      length 0.000000
      axis 0.0 0.0 -90.0 xyz
   end
   begin
      id 29
      name LeftHandThumb1
      direction 0.000000 0.000000 1.000000
      length 3.937000
      axis 0.0 0.0 -90.0 xyz
      dof rx rz ry
   end
   begin
      id 30
      name Head
      direction 0.000000 1.000000 0.000000
      length 4.527550
      axis 0.0 0.0 0.0 xyz
      dof rx ry rz
   end
:hierarchy
   begin
      root RightUpLeg_dum LeftUpLeg_dum Spine_dum
      RightUpLeg_dum RightUpLeg
      LeftUpLeg_dum LeftUpLeg
      Spine_dum Spine
      RightUpLeg RightLeg
      RightLeg RightFoot
      RightFoot RightToeBase
      LeftUpLeg LeftLeg
      LeftLeg LeftFoot
      LeftFoot LeftToeBase
      Spine Spine_dum1 Spine_dum2 Spine_dum3
      Spine_dum1 RightShoulder
      Spine_dum2 LeftShoulder
      Spine_dum3 Head
      RightShoulder RightArm
      RightArm RightForeArm
      RightForeArm RightHand
      RightHand RightHand_dum1 RightHand_dum2
      RightHand_dum2 RightHandThumb1
      LeftShoulder LeftArm
      LeftArm LeftForeArm
      LeftForeArm LeftHand
      LeftHand LeftHand_dum1 LeftHand_dum2
      LeftHand_dum2 LeftHandThumb1
   end

# File created by Blade
# Date/Time:  Wed Jan 21 19:19:18 2015
# Frame Rate: 120.000 fps
#------------------------------------------------------
:FULLY-SPECIFIED
:DEGREES
367
root -1.848432 14.043026 -2.047901 46.226173 -18.507426 20.417998
RightUpLeg -168.595631 -59.273271 27.623565
RightLeg 109.801259 -0.000000 -0.000000
RightFoot -13.932773 18.759875 23.676384
RightToeBase 21.641207 -0.000000 -0.000000
LeftUpLeg -28.895583 30.108073 27.835923
LeftLeg 14.879957 -0.000000 -0.000000
LeftFoot -28.364923 3.234107 -19.788390
LeftToeBase 6.228459 -0.000000 -0.000000
Spine -36.164520 11.341159 29.451106
RightShoulder -15.081597 16.434150 -16.399124
RightArm -6.621271 -14.882211 60.052638
RightForeArm -8.088754 -0.000000 30.772941
RightHand 36.158721 -0.000000 -67.536720
RightHandThumb1 -24.326973 -0.000000 -32.862282
LeftShoulder -19.325263 -21.528303 71.186795
LeftArm 74.833008 -45.105787 -21.161498
LeftForeArm 12.023082 0.000000 18.929420
LeftHand -17.987006 -0.000000 16.820154
LeftHandThumb1 -26.253704 0.000000 33.147579
Head -33.835472 -9.958629 53.945504
368
root -1.843922 14.060844 -2.047824 46.275716 -18.597737 20.500084
RightUpLeg -168.703378 -59.198051 27.642388
RightLeg 109.728285 -0.000000 -0.000000
RightFoot -13.912170 18.730270 23.660026
RightToeBase 21.663926 -0.000000 -0.000000
LeftUpLeg -29.008824 30.118590 27.636606
LeftLeg 14.921628 -0.000000 -0.000000
LeftFoot -28.314924 3.313032 -19.746132
LeftToeBase 6.205362 -0.000000 -0.000000
Spine -36.150835 11.251377 29.463469
RightShoulder -15.089943 16.573702 -16.538382
RightArm -6.399302 -15.221901 60.152735
RightForeArm -7.884324 0.000000 30.373163
RightHand 36.302358 -0.000000 -67.476726
RightHandThumb1 -24.326973 -0.000000 -32.862282
LeftShoulder -19.237090 -21.428502 71.121504
LeftArm 74.983785 -45.184122 -21.217624
LeftForeArm 12.078117 -0.000000 18.894002
LeftHand -18.085435 -0.000000 16.819346
LeftHandThumb1 -26.253704 0.000000 33.147579
Head -33.692971 -10.119356 53.920068
369
root -1.835896 14.084295 -2.050478 46.301218 -18.696697 20.589575
RightUpLeg -168.812359 -59.104839 27.672941
RightLeg 109.622808 -0.000000 -0.000000
RightFoot -13.863629 18.667421 23.571042
RightToeBase 21.652886 -0.000000 -0.000000
LeftUpLeg -29.095284 30.074443 27.446235
LeftLeg 14.951863 -0.000000 -0.000000
LeftFoot -28.276067 3.446954 -19.724190
LeftToeBase 6.232101 -0.000000 -0.000000
Spine -36.090288 11.130599 29.472570
RightShoulder -15.059916 16.713541 -16.623790
RightArm -6.248673 -15.741398 60.190456
RightForeArm -7.465808 -0.000000 30.169935
RightHand 36.266991 -0.000000 -67.196894
RightHandThumb1 -24.326973 -0.000000 -32.862282
LeftShoulder -19.222871 -21.391385 71.120106
LeftArm 75.203013 -45.189984 -21.365709
LeftForeArm 11.960884 -0.000000 18.812266
LeftHand -18.019290 -0.000000 16.822579
LeftHandThumb1 -26.253704 0.000000 33.147579
Head -33.583872 -10.156054 53.959162
370
root -1.823919 14.111554 -2.055218 46.360959 -18.819104 20.647329
RightUpLeg -168.940141 -58.952062 27.742008
RightLeg 109.490537 -0.000000 -0.000000
RightFoot -13.767950 18.613214 23.552614
RightToeBase 21.646760 -0.000000 -0.000000
LeftUpLeg -29.180043 30.080205 27.249850
LeftLeg 14.957483 -0.000000 -0.000000
LeftFoot -28.245842 3.543910 -19.733186
LeftToeBase 6.275649 -0.000000 -0.000000
Spine -36.019559 11.071559 29.487579
RightShoulder -15.054519 16.735462 -16.754462
RightArm -5.979041 -15.999536 60.248278
RightForeArm -7.572598 -0.000000 29.910235
RightHand 36.204931 -0.000000 -66.621936
RightHandThumb1 -24.326973 -0.000000 -32.862282
LeftShoulder -19.189125 -21.277628 71.055343
LeftArm 75.456189 -45.292460 -21.571498
LeftForeArm 11.818832 -0.000000 18.787711
LeftHand -17.886087 -0.000000 16.822162
LeftHandThumb1 -26.253704 0.000000 33.147579
Head -33.533866 -10.228216 53.950647
